<mxfile host="app.diagrams.net" modified="2024-06-18T03:23:26.866Z" agent="Mozilla/5.0 (Windows NT 10.0; Win64; x64) AppleWebKit/537.36 (KHTML, like Gecko) Chrome/126.0.0.0 Safari/537.36 Edg/126.0.0.0" etag="s6XdWpw0G5NaS-RfZ7bb" version="24.5.4" type="github">
  <diagram id="C5RBs43oDa-KdzZeNtuy" name="Page-1">
    <mxGraphModel dx="842" dy="1946" grid="1" gridSize="10" guides="1" tooltips="1" connect="1" arrows="1" fold="1" page="1" pageScale="1" pageWidth="827" pageHeight="1169" math="0" shadow="0">
      <root>
        <mxCell id="WIyWlLk6GJQsqaUBKTNV-0" />
        <mxCell id="WIyWlLk6GJQsqaUBKTNV-1" parent="WIyWlLk6GJQsqaUBKTNV-0" />
        <mxCell id="s57hdgjYQvh1-RJbTecI-2" value="灵智后台" style="swimlane;childLayout=stackLayout;resizeParent=1;resizeParentMax=0;startSize=20;horizontal=0;horizontalStack=1;" parent="WIyWlLk6GJQsqaUBKTNV-1" vertex="1">
          <mxGeometry x="20" y="-1099" width="520" height="670" as="geometry" />
        </mxCell>
        <mxCell id="s57hdgjYQvh1-RJbTecI-3" value="客户" style="swimlane;startSize=20;" parent="s57hdgjYQvh1-RJbTecI-2" vertex="1">
          <mxGeometry x="20" width="200" height="670" as="geometry" />
        </mxCell>
        <mxCell id="s57hdgjYQvh1-RJbTecI-6" value="收集资料" style="rounded=1;whiteSpace=wrap;html=1;" parent="s57hdgjYQvh1-RJbTecI-3" vertex="1">
          <mxGeometry x="20" y="70" width="70" height="40" as="geometry" />
        </mxCell>
        <mxCell id="s57hdgjYQvh1-RJbTecI-10" value="顶点账号申请（平安）" style="text;html=1;align=center;verticalAlign=middle;resizable=0;points=[];autosize=1;strokeColor=none;fillColor=none;rotation=-90;" parent="s57hdgjYQvh1-RJbTecI-3" vertex="1">
          <mxGeometry x="-80" y="84" width="140" height="30" as="geometry" />
        </mxCell>
        <mxCell id="s57hdgjYQvh1-RJbTecI-26" value="" style="edgeStyle=orthogonalEdgeStyle;rounded=0;orthogonalLoop=1;jettySize=auto;html=1;" parent="s57hdgjYQvh1-RJbTecI-3" source="s57hdgjYQvh1-RJbTecI-22" target="s57hdgjYQvh1-RJbTecI-25" edge="1">
          <mxGeometry relative="1" as="geometry" />
        </mxCell>
        <mxCell id="s57hdgjYQvh1-RJbTecI-22" value="申请商城资金账号" style="whiteSpace=wrap;html=1;rounded=1;" parent="s57hdgjYQvh1-RJbTecI-3" vertex="1">
          <mxGeometry x="18.75" y="244" width="72.5" height="40" as="geometry" />
        </mxCell>
        <mxCell id="s57hdgjYQvh1-RJbTecI-28" value="" style="edgeStyle=orthogonalEdgeStyle;rounded=0;orthogonalLoop=1;jettySize=auto;html=1;" parent="s57hdgjYQvh1-RJbTecI-3" source="s57hdgjYQvh1-RJbTecI-25" target="s57hdgjYQvh1-RJbTecI-27" edge="1">
          <mxGeometry relative="1" as="geometry" />
        </mxCell>
        <mxCell id="s57hdgjYQvh1-RJbTecI-25" value="申请门店资金账户" style="whiteSpace=wrap;html=1;rounded=1;" parent="s57hdgjYQvh1-RJbTecI-3" vertex="1">
          <mxGeometry x="18.75" y="325" width="72.5" height="40" as="geometry" />
        </mxCell>
        <mxCell id="s57hdgjYQvh1-RJbTecI-32" value="" style="edgeStyle=orthogonalEdgeStyle;rounded=0;orthogonalLoop=1;jettySize=auto;html=1;entryX=0.5;entryY=0;entryDx=0;entryDy=0;" parent="s57hdgjYQvh1-RJbTecI-3" source="s57hdgjYQvh1-RJbTecI-27" target="s57hdgjYQvh1-RJbTecI-35" edge="1">
          <mxGeometry relative="1" as="geometry">
            <mxPoint x="55" y="510" as="targetPoint" />
          </mxGeometry>
        </mxCell>
        <mxCell id="s57hdgjYQvh1-RJbTecI-27" value="申请店铺资金账号" style="whiteSpace=wrap;html=1;rounded=1;" parent="s57hdgjYQvh1-RJbTecI-3" vertex="1">
          <mxGeometry x="18.75" y="410" width="72.5" height="40" as="geometry" />
        </mxCell>
        <mxCell id="wIuU8KU8A_R90YKcKxqa-1" style="edgeStyle=orthogonalEdgeStyle;rounded=0;orthogonalLoop=1;jettySize=auto;html=1;entryX=0;entryY=0.5;entryDx=0;entryDy=0;" parent="s57hdgjYQvh1-RJbTecI-3" source="s57hdgjYQvh1-RJbTecI-35" target="wIuU8KU8A_R90YKcKxqa-0" edge="1">
          <mxGeometry relative="1" as="geometry" />
        </mxCell>
        <mxCell id="wIuU8KU8A_R90YKcKxqa-2" value="是" style="edgeLabel;html=1;align=center;verticalAlign=middle;resizable=0;points=[];" parent="wIuU8KU8A_R90YKcKxqa-1" vertex="1" connectable="0">
          <mxGeometry x="0.3164" y="1" relative="1" as="geometry">
            <mxPoint x="-2" y="1" as="offset" />
          </mxGeometry>
        </mxCell>
        <mxCell id="wIuU8KU8A_R90YKcKxqa-4" style="edgeStyle=orthogonalEdgeStyle;rounded=0;orthogonalLoop=1;jettySize=auto;html=1;entryX=0.5;entryY=0;entryDx=0;entryDy=0;" parent="s57hdgjYQvh1-RJbTecI-3" edge="1">
          <mxGeometry relative="1" as="geometry">
            <mxPoint x="54.739999999999995" y="540" as="sourcePoint" />
            <mxPoint x="54.94" y="590" as="targetPoint" />
          </mxGeometry>
        </mxCell>
        <mxCell id="wIuU8KU8A_R90YKcKxqa-5" value="否" style="edgeLabel;html=1;align=center;verticalAlign=middle;resizable=0;points=[];" parent="wIuU8KU8A_R90YKcKxqa-4" vertex="1" connectable="0">
          <mxGeometry x="0.32" relative="1" as="geometry">
            <mxPoint y="-13" as="offset" />
          </mxGeometry>
        </mxCell>
        <mxCell id="s57hdgjYQvh1-RJbTecI-35" value="&lt;font style=&quot;font-size: 11px;&quot;&gt;停车是否单&lt;/font&gt;&lt;div&gt;&lt;font style=&quot;font-size: 11px;&quot;&gt;独需要&lt;span style=&quot;background-color: initial;&quot;&gt;账号&lt;/span&gt;&lt;/font&gt;&lt;/div&gt;" style="rhombus;whiteSpace=wrap;html=1;" parent="s57hdgjYQvh1-RJbTecI-3" vertex="1">
          <mxGeometry x="17.5" y="480" width="75" height="70" as="geometry" />
        </mxCell>
        <mxCell id="wIuU8KU8A_R90YKcKxqa-0" value="申请停车资金账户" style="whiteSpace=wrap;html=1;rounded=1;" parent="s57hdgjYQvh1-RJbTecI-3" vertex="1">
          <mxGeometry x="120" y="495" width="72.5" height="40" as="geometry" />
        </mxCell>
        <mxCell id="wIuU8KU8A_R90YKcKxqa-3" value="直接使用门店资金账号" style="whiteSpace=wrap;html=1;rounded=1;" parent="s57hdgjYQvh1-RJbTecI-3" vertex="1">
          <mxGeometry x="18.75" y="590" width="72.5" height="40" as="geometry" />
        </mxCell>
        <mxCell id="s57hdgjYQvh1-RJbTecI-4" value="灵智" style="swimlane;startSize=20;" parent="s57hdgjYQvh1-RJbTecI-2" vertex="1">
          <mxGeometry x="220" width="160" height="670" as="geometry" />
        </mxCell>
        <mxCell id="s57hdgjYQvh1-RJbTecI-7" value="整理信息" style="whiteSpace=wrap;html=1;rounded=1;" parent="s57hdgjYQvh1-RJbTecI-4" vertex="1">
          <mxGeometry x="27.5" y="70" width="70" height="40" as="geometry" />
        </mxCell>
        <mxCell id="s57hdgjYQvh1-RJbTecI-21" value="" style="edgeStyle=orthogonalEdgeStyle;rounded=0;orthogonalLoop=1;jettySize=auto;html=1;" parent="s57hdgjYQvh1-RJbTecI-4" source="s57hdgjYQvh1-RJbTecI-15" target="s57hdgjYQvh1-RJbTecI-20" edge="1">
          <mxGeometry relative="1" as="geometry" />
        </mxCell>
        <mxCell id="s57hdgjYQvh1-RJbTecI-15" value="后台配置" style="whiteSpace=wrap;html=1;rounded=1;" parent="s57hdgjYQvh1-RJbTecI-4" vertex="1">
          <mxGeometry x="36.25" y="180" width="72.5" height="40" as="geometry" />
        </mxCell>
        <mxCell id="s57hdgjYQvh1-RJbTecI-20" value="功能开通" style="whiteSpace=wrap;html=1;rounded=1;" parent="s57hdgjYQvh1-RJbTecI-4" vertex="1">
          <mxGeometry x="36.25" y="244" width="72.5" height="40" as="geometry" />
        </mxCell>
        <mxCell id="s57hdgjYQvh1-RJbTecI-9" value="" style="endArrow=none;html=1;rounded=0;exitX=0;exitY=0.25;exitDx=0;exitDy=0;" parent="s57hdgjYQvh1-RJbTecI-4" edge="1">
          <mxGeometry width="50" height="50" relative="1" as="geometry">
            <mxPoint x="-220" y="170" as="sourcePoint" />
            <mxPoint x="300" y="171" as="targetPoint" />
          </mxGeometry>
        </mxCell>
        <mxCell id="s57hdgjYQvh1-RJbTecI-8" value="" style="edgeStyle=orthogonalEdgeStyle;rounded=0;orthogonalLoop=1;jettySize=auto;html=1;" parent="s57hdgjYQvh1-RJbTecI-2" source="s57hdgjYQvh1-RJbTecI-6" target="s57hdgjYQvh1-RJbTecI-7" edge="1">
          <mxGeometry relative="1" as="geometry" />
        </mxCell>
        <mxCell id="s57hdgjYQvh1-RJbTecI-13" value="提交资料" style="edgeLabel;html=1;align=center;verticalAlign=middle;resizable=0;points=[];" parent="s57hdgjYQvh1-RJbTecI-8" vertex="1" connectable="0">
          <mxGeometry x="-0.249" y="-1" relative="1" as="geometry">
            <mxPoint as="offset" />
          </mxGeometry>
        </mxCell>
        <mxCell id="s57hdgjYQvh1-RJbTecI-12" value="" style="edgeStyle=orthogonalEdgeStyle;rounded=0;orthogonalLoop=1;jettySize=auto;html=1;" parent="s57hdgjYQvh1-RJbTecI-2" source="s57hdgjYQvh1-RJbTecI-7" target="s57hdgjYQvh1-RJbTecI-11" edge="1">
          <mxGeometry relative="1" as="geometry" />
        </mxCell>
        <mxCell id="s57hdgjYQvh1-RJbTecI-14" value="申请开户" style="edgeLabel;html=1;align=center;verticalAlign=middle;resizable=0;points=[];" parent="s57hdgjYQvh1-RJbTecI-12" vertex="1" connectable="0">
          <mxGeometry x="-0.2384" y="2" relative="1" as="geometry">
            <mxPoint y="2" as="offset" />
          </mxGeometry>
        </mxCell>
        <mxCell id="s57hdgjYQvh1-RJbTecI-16" value="" style="edgeStyle=orthogonalEdgeStyle;rounded=0;orthogonalLoop=1;jettySize=auto;html=1;" parent="s57hdgjYQvh1-RJbTecI-2" source="s57hdgjYQvh1-RJbTecI-11" target="s57hdgjYQvh1-RJbTecI-15" edge="1">
          <mxGeometry relative="1" as="geometry">
            <Array as="points">
              <mxPoint x="448" y="200" />
            </Array>
          </mxGeometry>
        </mxCell>
        <mxCell id="s57hdgjYQvh1-RJbTecI-17" value="返回开户秘钥" style="edgeLabel;html=1;align=center;verticalAlign=middle;resizable=0;points=[];" parent="s57hdgjYQvh1-RJbTecI-16" vertex="1" connectable="0">
          <mxGeometry x="0.2942" y="-2" relative="1" as="geometry">
            <mxPoint x="-20" y="2" as="offset" />
          </mxGeometry>
        </mxCell>
        <mxCell id="s57hdgjYQvh1-RJbTecI-23" value="" style="edgeStyle=orthogonalEdgeStyle;rounded=0;orthogonalLoop=1;jettySize=auto;html=1;" parent="s57hdgjYQvh1-RJbTecI-2" source="s57hdgjYQvh1-RJbTecI-20" target="s57hdgjYQvh1-RJbTecI-22" edge="1">
          <mxGeometry relative="1" as="geometry" />
        </mxCell>
        <mxCell id="s57hdgjYQvh1-RJbTecI-24" value="通知" style="edgeLabel;html=1;align=center;verticalAlign=middle;resizable=0;points=[];" parent="s57hdgjYQvh1-RJbTecI-23" vertex="1" connectable="0">
          <mxGeometry x="-0.2294" y="2" relative="1" as="geometry">
            <mxPoint x="-11" y="-2" as="offset" />
          </mxGeometry>
        </mxCell>
        <mxCell id="s57hdgjYQvh1-RJbTecI-5" value="平安" style="swimlane;startSize=20;" parent="s57hdgjYQvh1-RJbTecI-2" vertex="1">
          <mxGeometry x="380" width="140" height="670" as="geometry" />
        </mxCell>
        <mxCell id="s57hdgjYQvh1-RJbTecI-11" value="平安开户" style="whiteSpace=wrap;html=1;rounded=1;" parent="s57hdgjYQvh1-RJbTecI-5" vertex="1">
          <mxGeometry x="32" y="70" width="72.5" height="40" as="geometry" />
        </mxCell>
        <mxCell id="Rz3DkN3tFBphpeGYRr7L-0" value="&lt;div data-version=&quot;3.0.0&quot; data-hash=&quot;84bb3927976cdaad550b4a9fe43c4d47&quot;&gt;&lt;/div&gt;&lt;div class=&quot;document&quot;&gt;&lt;div class=&quot;section&quot;&gt;&lt;br&gt;&lt;br&gt;&lt;br&gt;&lt;br&gt;&lt;br&gt;&lt;br&gt;&lt;br&gt;&lt;br&gt;&lt;br&gt;&lt;br&gt;&lt;br&gt;&lt;br&gt;&lt;br&gt;&lt;br&gt;&lt;br&gt;&lt;br&gt;&lt;br&gt;&lt;br&gt;&lt;br&gt;&lt;br&gt;&lt;br&gt;&lt;br&gt;&lt;br&gt;&lt;br&gt;&lt;/div&gt;&lt;/div&gt;" style="text;whiteSpace=wrap;html=1;movable=1;resizable=1;rotatable=1;deletable=1;editable=1;locked=0;connectable=1;" vertex="1" parent="WIyWlLk6GJQsqaUBKTNV-1">
          <mxGeometry x="557" y="-220" width="270" height="100" as="geometry" />
        </mxCell>
        <mxCell id="Rz3DkN3tFBphpeGYRr7L-1" value="&lt;table style=&quot;forced-color-adjust: none; color: rgb(0, 0, 0); font-family: Helvetica; font-size: 12px; font-style: normal; font-variant-ligatures: normal; font-variant-caps: normal; font-weight: 400; letter-spacing: normal; orphans: 2; text-align: left; text-transform: none; widows: 2; word-spacing: 0px; -webkit-text-stroke-width: 0px; white-space: normal; background-color: rgb(251, 251, 251); text-decoration-thickness: initial; text-decoration-style: initial; text-decoration-color: initial; border-collapse: collapse; border: none; table-layout: fixed;&quot;&gt;&lt;tbody style=&quot;forced-color-adjust: none;&quot;&gt;&lt;tr style=&quot;forced-color-adjust: none; height: 27px;&quot;&gt;&lt;td rowspan=&quot;1&quot; colspan=&quot;1&quot; width=&quot;301&quot; style=&quot;forced-color-adjust: none; width: 301px; box-sizing: border-box; vertical-align: middle; padding: 0px 7.2px; border-width: 1px; border-style: solid; border-color: rgb(203, 205, 209);&quot;&gt;&lt;p class=&quot;paragraph text-align-type-left&quot; style=&quot;forced-color-adjust: none; text-align: left; line-height: 1.3; margin-top: 3pt; margin-bottom: 3pt; margin-left: 0pt;&quot;&gt;&lt;span data-font-family=&quot;default&quot; style=&quot;forced-color-adjust: none; font-size: 11pt; font-weight: normal; font-style: normal; color: rgb(0, 0, 0); letter-spacing: 0pt; vertical-align: baseline;&quot;&gt;资料&lt;/span&gt;&lt;span lang=&quot;EN-US&quot; style=&quot;forced-color-adjust: none;&quot;&gt;&lt;/span&gt;&lt;/p&gt;&lt;/td&gt;&lt;td rowspan=&quot;1&quot; colspan=&quot;1&quot; width=&quot;301&quot; style=&quot;forced-color-adjust: none; width: 301px; box-sizing: border-box; vertical-align: middle; padding: 0px 7.2px; border-width: 1px; border-style: solid; border-color: rgb(203, 205, 209);&quot;&gt;&lt;p class=&quot;paragraph text-align-type-left&quot; style=&quot;forced-color-adjust: none; text-align: left; line-height: 1.3; margin-top: 3pt; margin-bottom: 3pt; margin-left: 0pt;&quot;&gt;&lt;span data-font-family=&quot;default&quot; style=&quot;forced-color-adjust: none; font-size: 11pt; font-weight: normal; font-style: normal; color: rgb(0, 0, 0); letter-spacing: 0pt; vertical-align: baseline;&quot;&gt;明细&lt;/span&gt;&lt;span lang=&quot;EN-US&quot; style=&quot;forced-color-adjust: none;&quot;&gt;&lt;/span&gt;&lt;/p&gt;&lt;/td&gt;&lt;/tr&gt;&lt;tr style=&quot;forced-color-adjust: none; height: 27px;&quot;&gt;&lt;td rowspan=&quot;1&quot; colspan=&quot;1&quot; width=&quot;301&quot; style=&quot;forced-color-adjust: none; width: 301px; box-sizing: border-box; vertical-align: middle; padding: 0px 7.2px; border-width: 1px; border-style: solid; border-color: rgb(203, 205, 209);&quot;&gt;&lt;p class=&quot;paragraph text-align-type-left&quot; style=&quot;forced-color-adjust: none; text-align: left; line-height: 1.3; margin-top: 3pt; margin-bottom: 3pt; margin-left: 0pt;&quot;&gt;&lt;span data-font-family=&quot;default&quot; style=&quot;forced-color-adjust: none; font-size: 11pt; font-weight: normal; font-style: normal; color: rgb(0, 0, 0); letter-spacing: 0pt; vertical-align: baseline;&quot;&gt;企业信息&lt;/span&gt;&lt;span lang=&quot;EN-US&quot; style=&quot;forced-color-adjust: none;&quot;&gt;&lt;/span&gt;&lt;/p&gt;&lt;/td&gt;&lt;td rowspan=&quot;1&quot; colspan=&quot;1&quot; width=&quot;301&quot; style=&quot;forced-color-adjust: none; width: 301px; box-sizing: border-box; vertical-align: middle; padding: 0px 7.2px; border-width: 1px; border-style: solid; border-color: rgb(203, 205, 209);&quot;&gt;&lt;p class=&quot;paragraph text-align-type-left&quot; style=&quot;forced-color-adjust: none; text-align: left; line-height: 1.3; margin-top: 3pt; margin-bottom: 3pt; margin-left: 0pt;&quot;&gt;&lt;span data-font-family=&quot;default&quot; style=&quot;forced-color-adjust: none; font-size: 11pt; font-weight: normal; font-style: normal; color: rgb(0, 0, 0); letter-spacing: 0pt; vertical-align: baseline;&quot;&gt;企业名称&lt;/span&gt;&lt;span lang=&quot;EN-US&quot; style=&quot;forced-color-adjust: none;&quot;&gt;&lt;/span&gt;&lt;/p&gt;&lt;p class=&quot;paragraph text-align-type-left&quot; style=&quot;forced-color-adjust: none; text-align: left; line-height: 1.3; margin-top: 3pt; margin-bottom: 3pt; margin-left: 0pt;&quot;&gt;&lt;span data-font-family=&quot;default&quot; style=&quot;forced-color-adjust: none; font-size: 11pt; font-weight: normal; font-style: normal; color: rgb(0, 0, 0); letter-spacing: 0pt; vertical-align: baseline;&quot;&gt;统一社会信用代码&lt;/span&gt;&lt;span lang=&quot;EN-US&quot; style=&quot;forced-color-adjust: none;&quot;&gt;&lt;/span&gt;&lt;/p&gt;&lt;p class=&quot;paragraph text-align-type-left&quot; style=&quot;forced-color-adjust: none; text-align: left; line-height: 1.3; margin-top: 3pt; margin-bottom: 3pt; margin-left: 0pt;&quot;&gt;&lt;span data-font-family=&quot;default&quot; style=&quot;forced-color-adjust: none; font-size: 11pt; font-weight: normal; font-style: normal; color: rgb(0, 0, 0); letter-spacing: 0pt; vertical-align: baseline;&quot;&gt;营业执照&lt;/span&gt;&lt;span lang=&quot;EN-US&quot; style=&quot;forced-color-adjust: none;&quot;&gt;&lt;/span&gt;&lt;/p&gt;&lt;/td&gt;&lt;/tr&gt;&lt;tr style=&quot;forced-color-adjust: none; height: 27px;&quot;&gt;&lt;td rowspan=&quot;1&quot; colspan=&quot;1&quot; width=&quot;301&quot; style=&quot;forced-color-adjust: none; width: 301px; box-sizing: border-box; vertical-align: middle; padding: 0px 7.2px; border-width: 1px; border-style: solid; border-color: rgb(203, 205, 209);&quot;&gt;&lt;p class=&quot;paragraph text-align-type-left&quot; style=&quot;forced-color-adjust: none; text-align: left; line-height: 1.3; margin-top: 3pt; margin-bottom: 3pt; margin-left: 0pt;&quot;&gt;&lt;span data-font-family=&quot;default&quot; style=&quot;forced-color-adjust: none; font-size: 11pt; font-weight: normal; font-style: normal; color: rgb(0, 0, 0); letter-spacing: 0pt; vertical-align: baseline;&quot;&gt;法人&lt;/span&gt;&lt;span lang=&quot;EN-US&quot; style=&quot;forced-color-adjust: none;&quot;&gt;&lt;/span&gt;&lt;/p&gt;&lt;/td&gt;&lt;td rowspan=&quot;1&quot; colspan=&quot;1&quot; width=&quot;301&quot; style=&quot;forced-color-adjust: none; width: 301px; box-sizing: border-box; vertical-align: middle; padding: 0px 7.2px; border-width: 1px; border-style: solid; border-color: rgb(203, 205, 209);&quot;&gt;&lt;p class=&quot;paragraph text-align-type-left&quot; style=&quot;forced-color-adjust: none; text-align: left; line-height: 1.3; margin-top: 3pt; margin-bottom: 3pt; margin-left: 0pt;&quot;&gt;&lt;span data-font-family=&quot;default&quot; style=&quot;forced-color-adjust: none; font-size: 11pt; font-weight: normal; font-style: normal; color: rgb(0, 0, 0); letter-spacing: 0pt; vertical-align: baseline;&quot;&gt;姓名&lt;/span&gt;&lt;span lang=&quot;EN-US&quot; style=&quot;forced-color-adjust: none;&quot;&gt;&lt;/span&gt;&lt;/p&gt;&lt;p class=&quot;paragraph text-align-type-left&quot; style=&quot;forced-color-adjust: none; text-align: left; line-height: 1.3; margin-top: 3pt; margin-bottom: 3pt; margin-left: 0pt;&quot;&gt;&lt;span data-font-family=&quot;default&quot; style=&quot;forced-color-adjust: none; font-size: 11pt; font-weight: normal; font-style: normal; color: rgb(0, 0, 0); letter-spacing: 0pt; vertical-align: baseline;&quot;&gt;身份证号&lt;/span&gt;&lt;span lang=&quot;EN-US&quot; style=&quot;forced-color-adjust: none;&quot;&gt;&lt;/span&gt;&lt;/p&gt;&lt;p class=&quot;paragraph text-align-type-left&quot; style=&quot;forced-color-adjust: none; text-align: left; line-height: 1.3; margin-top: 3pt; margin-bottom: 3pt; margin-left: 0pt;&quot;&gt;&lt;span data-font-family=&quot;default&quot; style=&quot;forced-color-adjust: none; font-size: 11pt; font-weight: normal; font-style: normal; color: rgb(0, 0, 0); letter-spacing: 0pt; vertical-align: baseline;&quot;&gt;身份证正反面&lt;/span&gt;&lt;span lang=&quot;EN-US&quot; style=&quot;forced-color-adjust: none;&quot;&gt;&lt;/span&gt;&lt;/p&gt;&lt;/td&gt;&lt;/tr&gt;&lt;tr style=&quot;forced-color-adjust: none; height: 27px;&quot;&gt;&lt;td rowspan=&quot;1&quot; colspan=&quot;1&quot; width=&quot;301&quot; style=&quot;forced-color-adjust: none; width: 301px; box-sizing: border-box; vertical-align: middle; padding: 0px 7.2px; border-width: 1px; border-style: solid; border-color: rgb(203, 205, 209);&quot;&gt;&lt;p class=&quot;paragraph text-align-type-left&quot; style=&quot;forced-color-adjust: none; text-align: left; line-height: 1.3; margin-top: 3pt; margin-bottom: 3pt; margin-left: 0pt;&quot;&gt;&lt;span data-font-family=&quot;default&quot; style=&quot;forced-color-adjust: none; font-size: 11pt; font-weight: normal; font-style: normal; color: rgb(0, 0, 0); letter-spacing: 0pt; vertical-align: baseline;&quot;&gt;对公户&lt;/span&gt;&lt;span lang=&quot;EN-US&quot; style=&quot;forced-color-adjust: none;&quot;&gt;&lt;/span&gt;&lt;/p&gt;&lt;/td&gt;&lt;td rowspan=&quot;1&quot; colspan=&quot;1&quot; width=&quot;301&quot; style=&quot;forced-color-adjust: none; width: 301px; box-sizing: border-box; vertical-align: middle; padding: 0px 7.2px; border-width: 1px; border-style: solid; border-color: rgb(203, 205, 209);&quot;&gt;&lt;p class=&quot;paragraph text-align-type-left&quot; style=&quot;forced-color-adjust: none; text-align: left; line-height: 1.3; margin-top: 3pt; margin-bottom: 3pt; margin-left: 0pt;&quot;&gt;&lt;span data-font-family=&quot;default&quot; style=&quot;forced-color-adjust: none; font-size: 11pt; font-weight: normal; font-style: normal; color: rgb(0, 0, 0); letter-spacing: 0pt; vertical-align: baseline;&quot;&gt;开户银行&lt;/span&gt;&lt;span lang=&quot;EN-US&quot; style=&quot;forced-color-adjust: none;&quot;&gt;&lt;/span&gt;&lt;/p&gt;&lt;p class=&quot;paragraph text-align-type-left&quot; style=&quot;forced-color-adjust: none; text-align: left; line-height: 1.3; margin-top: 3pt; margin-bottom: 3pt; margin-left: 0pt;&quot;&gt;&lt;span data-font-family=&quot;default&quot; style=&quot;forced-color-adjust: none; font-size: 11pt; font-weight: normal; font-style: normal; color: rgb(0, 0, 0); letter-spacing: 0pt; vertical-align: baseline;&quot;&gt;银行账号&lt;/span&gt;&lt;/p&gt;&lt;/td&gt;&lt;/tr&gt;&lt;/tbody&gt;&lt;/table&gt;" style="text;whiteSpace=wrap;html=1;movable=1;resizable=1;rotatable=1;deletable=1;editable=1;locked=0;connectable=1;" vertex="1" parent="WIyWlLk6GJQsqaUBKTNV-1">
          <mxGeometry x="557" y="-1140" width="313" height="251" as="geometry" />
        </mxCell>
        <mxCell id="Rz3DkN3tFBphpeGYRr7L-3" value="&lt;div data-version=&quot;3.0.0&quot; data-hash=&quot;025fe17ac6a2c679d812ab66ec4ac52c&quot;&gt;&lt;/div&gt;&lt;div class=&quot;document&quot;&gt;&lt;div class=&quot;section&quot;&gt;&lt;br&gt;&lt;/div&gt;&lt;/div&gt;" style="text;whiteSpace=wrap;html=1;movable=1;resizable=1;rotatable=1;deletable=1;editable=1;locked=0;connectable=1;" vertex="1" parent="WIyWlLk6GJQsqaUBKTNV-1">
          <mxGeometry x="540" y="-900" width="516.5" height="50" as="geometry" />
        </mxCell>
        <mxCell id="Rz3DkN3tFBphpeGYRr7L-11" value="&lt;font style=&quot;text-align: left; font-size: 14px;&quot;&gt;平安返回字段&lt;/font&gt;&lt;span style=&quot;text-align: left;&quot;&gt;：&lt;/span&gt;&lt;span style=&quot;text-align: left; font-size: 14.6667px;&quot;&gt;应用私钥&lt;/span&gt;&lt;span style=&quot;text-align: left;&quot;&gt;、&lt;/span&gt;&lt;span style=&quot;text-align: left; font-size: 14.6667px;&quot;&gt;开放平台公钥、&lt;/span&gt;&lt;span style=&quot;text-align: left; font-size: 14.6667px;&quot;&gt;应用ID、&lt;/span&gt;&lt;span style=&quot;text-align: left; font-size: 14.6667px;&quot;&gt;应用secret、&lt;/span&gt;&lt;span style=&quot;text-align: left; font-size: 14.6667px;&quot;&gt;资金监管账号、&lt;/span&gt;&lt;span style=&quot;text-align: left; font-size: 14.6667px;&quot;&gt;客户号、&lt;/span&gt;&lt;span style=&quot;text-align: left; font-size: 14.6667px;&quot;&gt;平台代码、&lt;/span&gt;&lt;span style=&quot;text-align: left; font-size: 14.6667px;&quot;&gt;云收款商户编号、&lt;/span&gt;&lt;span style=&quot;text-align: left; font-size: 14.6667px;&quot;&gt;交易手续费&lt;/span&gt;" style="rounded=2;whiteSpace=wrap;html=1;" vertex="1" parent="WIyWlLk6GJQsqaUBKTNV-1">
          <mxGeometry x="557" y="-900" width="300" height="80" as="geometry" />
        </mxCell>
        <mxCell id="Rz3DkN3tFBphpeGYRr7L-12" value="&lt;table style=&quot;forced-color-adjust: none; color: rgb(0, 0, 0); font-family: Helvetica; font-size: 12px; font-style: normal; font-variant-ligatures: normal; font-variant-caps: normal; font-weight: 400; letter-spacing: normal; orphans: 2; text-align: left; text-transform: none; widows: 2; word-spacing: 0px; -webkit-text-stroke-width: 0px; white-space: normal; background-color: rgb(251, 251, 251); text-decoration-thickness: initial; text-decoration-style: initial; text-decoration-color: initial; border-collapse: collapse; border: none; table-layout: fixed;&quot;&gt;&lt;tbody style=&quot;forced-color-adjust: none;&quot;&gt;&lt;tr style=&quot;forced-color-adjust: none; height: 27px;&quot;&gt;&lt;td rowspan=&quot;1&quot; colspan=&quot;1&quot; width=&quot;301&quot; style=&quot;forced-color-adjust: none; width: 301px; box-sizing: border-box; vertical-align: middle; padding: 0px 7.2px; border-width: 1px; border-style: solid; border-color: rgb(203, 205, 209);&quot;&gt;&lt;p class=&quot;paragraph text-align-type-left&quot; style=&quot;forced-color-adjust: none; text-align: left; line-height: 1.3; margin-top: 3pt; margin-bottom: 3pt; margin-left: 0pt;&quot;&gt;&lt;span data-font-family=&quot;default&quot; style=&quot;forced-color-adjust: none; font-size: 11pt; font-weight: normal; font-style: normal; color: rgb(0, 0, 0); letter-spacing: 0pt; vertical-align: baseline;&quot;&gt;资料&lt;/span&gt;&lt;span lang=&quot;EN-US&quot; style=&quot;forced-color-adjust: none;&quot;&gt;&lt;/span&gt;&lt;/p&gt;&lt;/td&gt;&lt;td rowspan=&quot;1&quot; colspan=&quot;1&quot; width=&quot;301&quot; style=&quot;forced-color-adjust: none; width: 301px; box-sizing: border-box; vertical-align: middle; padding: 0px 7.2px; border-width: 1px; border-style: solid; border-color: rgb(203, 205, 209);&quot;&gt;&lt;p class=&quot;paragraph text-align-type-left&quot; style=&quot;forced-color-adjust: none; text-align: left; line-height: 1.3; margin-top: 3pt; margin-bottom: 3pt; margin-left: 0pt;&quot;&gt;&lt;span data-font-family=&quot;default&quot; style=&quot;forced-color-adjust: none; font-size: 11pt; font-weight: normal; font-style: normal; color: rgb(0, 0, 0); letter-spacing: 0pt; vertical-align: baseline;&quot;&gt;明细&lt;/span&gt;&lt;span lang=&quot;EN-US&quot; style=&quot;forced-color-adjust: none;&quot;&gt;&lt;/span&gt;&lt;/p&gt;&lt;/td&gt;&lt;/tr&gt;&lt;tr style=&quot;forced-color-adjust: none; height: 27px;&quot;&gt;&lt;td rowspan=&quot;1&quot; colspan=&quot;1&quot; width=&quot;301&quot; style=&quot;forced-color-adjust: none; width: 301px; box-sizing: border-box; vertical-align: middle; padding: 0px 7.2px; border-width: 1px; border-style: solid; border-color: rgb(203, 205, 209);&quot;&gt;&lt;p class=&quot;paragraph text-align-type-left&quot; style=&quot;forced-color-adjust: none; text-align: left; line-height: 1.3; margin-top: 3pt; margin-bottom: 3pt; margin-left: 0pt;&quot;&gt;&lt;span style=&quot;font-size: 14.6667px;&quot;&gt;企业信息&lt;/span&gt;&lt;/p&gt;&lt;/td&gt;&lt;td rowspan=&quot;1&quot; colspan=&quot;1&quot; width=&quot;301&quot; style=&quot;forced-color-adjust: none; width: 301px; box-sizing: border-box; vertical-align: middle; padding: 0px 7.2px; border-width: 1px; border-style: solid; border-color: rgb(203, 205, 209);&quot;&gt;&lt;div style=&quot;font-size: medium;&quot; data-hash=&quot;e6f1696cefb9af24017eaa34068336b5&quot; data-version=&quot;3.0.0&quot;&gt;&lt;/div&gt;&lt;div style=&quot;font-size: medium;&quot; class=&quot;document&quot;&gt;&lt;div class=&quot;section&quot;&gt;&lt;p style=&quot;margin: 3pt 0pt; font-family: 等线; font-size: 12pt; line-height: 1.3;&quot; class=&quot;paragraph text-align-type-left&quot;&gt;&lt;span style=&quot;font-size: 11pt; color: rgb(51, 51, 51); letter-spacing: 0pt; vertical-align: baseline;&quot; data-font-family=&quot;default&quot;&gt;商户名称&lt;/span&gt;&lt;/p&gt;&lt;/div&gt;&lt;/div&gt;&lt;p class=&quot;paragraph text-align-type-left&quot; style=&quot;forced-color-adjust: none; text-align: left; line-height: 1.3; margin-top: 3pt; margin-bottom: 3pt; margin-left: 0pt;&quot;&gt;&lt;span data-font-family=&quot;default&quot; style=&quot;forced-color-adjust: none; font-size: 11pt; font-weight: normal; font-style: normal; color: rgb(0, 0, 0); letter-spacing: 0pt; vertical-align: baseline;&quot;&gt;统一社会信用代码&lt;/span&gt;&lt;span lang=&quot;EN-US&quot; style=&quot;forced-color-adjust: none;&quot;&gt;&lt;/span&gt;&lt;/p&gt;&lt;p class=&quot;paragraph text-align-type-left&quot; style=&quot;forced-color-adjust: none; text-align: left; line-height: 1.3; margin-top: 3pt; margin-bottom: 3pt; margin-left: 0pt;&quot;&gt;&lt;span data-font-family=&quot;default&quot; style=&quot;forced-color-adjust: none; font-size: 11pt; font-weight: normal; font-style: normal; color: rgb(0, 0, 0); letter-spacing: 0pt; vertical-align: baseline;&quot;&gt;营业执照照片&lt;/span&gt;&lt;/p&gt;&lt;/td&gt;&lt;/tr&gt;&lt;tr style=&quot;forced-color-adjust: none; height: 27px;&quot;&gt;&lt;td rowspan=&quot;1&quot; colspan=&quot;1&quot; width=&quot;301&quot; style=&quot;forced-color-adjust: none; width: 301px; box-sizing: border-box; vertical-align: middle; padding: 0px 7.2px; border-width: 1px; border-style: solid; border-color: rgb(203, 205, 209);&quot;&gt;&lt;p class=&quot;paragraph text-align-type-left&quot; style=&quot;forced-color-adjust: none; text-align: left; line-height: 1.3; margin-top: 3pt; margin-bottom: 3pt; margin-left: 0pt;&quot;&gt;&lt;span data-font-family=&quot;default&quot; style=&quot;forced-color-adjust: none; font-size: 11pt; font-weight: normal; font-style: normal; color: rgb(0, 0, 0); letter-spacing: 0pt; vertical-align: baseline;&quot;&gt;法人&lt;/span&gt;&lt;span lang=&quot;EN-US&quot; style=&quot;forced-color-adjust: none;&quot;&gt;&lt;/span&gt;&lt;/p&gt;&lt;/td&gt;&lt;td rowspan=&quot;1&quot; colspan=&quot;1&quot; width=&quot;301&quot; style=&quot;forced-color-adjust: none; width: 301px; box-sizing: border-box; vertical-align: middle; padding: 0px 7.2px; border-width: 1px; border-style: solid; border-color: rgb(203, 205, 209);&quot;&gt;&lt;p class=&quot;paragraph text-align-type-left&quot; style=&quot;forced-color-adjust: none; text-align: left; line-height: 1.3; margin-top: 3pt; margin-bottom: 3pt; margin-left: 0pt;&quot;&gt;&lt;span data-font-family=&quot;default&quot; style=&quot;forced-color-adjust: none; font-size: 11pt; font-weight: normal; font-style: normal; color: rgb(0, 0, 0); letter-spacing: 0pt; vertical-align: baseline;&quot;&gt;姓名&lt;/span&gt;&lt;span lang=&quot;EN-US&quot; style=&quot;forced-color-adjust: none;&quot;&gt;&lt;/span&gt;&lt;/p&gt;&lt;p class=&quot;paragraph text-align-type-left&quot; style=&quot;forced-color-adjust: none; text-align: left; line-height: 1.3; margin-top: 3pt; margin-bottom: 3pt; margin-left: 0pt;&quot;&gt;&lt;span data-font-family=&quot;default&quot; style=&quot;forced-color-adjust: none; font-size: 11pt; font-weight: normal; font-style: normal; color: rgb(0, 0, 0); letter-spacing: 0pt; vertical-align: baseline;&quot;&gt;身份证号&lt;/span&gt;&lt;span lang=&quot;EN-US&quot; style=&quot;forced-color-adjust: none;&quot;&gt;&lt;/span&gt;&lt;/p&gt;&lt;p class=&quot;paragraph text-align-type-left&quot; style=&quot;forced-color-adjust: none; text-align: left; line-height: 1.3; margin-top: 3pt; margin-bottom: 3pt; margin-left: 0pt;&quot;&gt;&lt;span data-font-family=&quot;default&quot; style=&quot;forced-color-adjust: none; font-size: 11pt; font-weight: normal; font-style: normal; color: rgb(0, 0, 0); letter-spacing: 0pt; vertical-align: baseline;&quot;&gt;身份证正反面&lt;/span&gt;&lt;span lang=&quot;EN-US&quot; style=&quot;forced-color-adjust: none;&quot;&gt;&lt;/span&gt;&lt;/p&gt;&lt;/td&gt;&lt;/tr&gt;&lt;tr style=&quot;forced-color-adjust: none; height: 27px;&quot;&gt;&lt;td rowspan=&quot;1&quot; colspan=&quot;1&quot; width=&quot;301&quot; style=&quot;forced-color-adjust: none; width: 301px; box-sizing: border-box; vertical-align: middle; padding: 0px 7.2px; border-width: 1px; border-style: solid; border-color: rgb(203, 205, 209);&quot;&gt;&lt;p class=&quot;paragraph text-align-type-left&quot; style=&quot;forced-color-adjust: none; text-align: left; line-height: 1.3; margin-top: 3pt; margin-bottom: 3pt; margin-left: 0pt;&quot;&gt;&lt;span data-font-family=&quot;default&quot; style=&quot;forced-color-adjust: none; font-size: 11pt; font-weight: normal; font-style: normal; color: rgb(0, 0, 0); letter-spacing: 0pt; vertical-align: baseline;&quot;&gt;对公户&lt;/span&gt;&lt;span lang=&quot;EN-US&quot; style=&quot;forced-color-adjust: none;&quot;&gt;&lt;/span&gt;&lt;/p&gt;&lt;/td&gt;&lt;td rowspan=&quot;1&quot; colspan=&quot;1&quot; width=&quot;301&quot; style=&quot;forced-color-adjust: none; width: 301px; box-sizing: border-box; vertical-align: middle; padding: 0px 7.2px; border-width: 1px; border-style: solid; border-color: rgb(203, 205, 209);&quot;&gt;&lt;p class=&quot;paragraph text-align-type-left&quot; style=&quot;forced-color-adjust: none; text-align: left; line-height: 1.3; margin-top: 3pt; margin-bottom: 3pt; margin-left: 0pt;&quot;&gt;&lt;span data-font-family=&quot;default&quot; style=&quot;forced-color-adjust: none; font-size: 11pt; font-weight: normal; font-style: normal; color: rgb(0, 0, 0); letter-spacing: 0pt; vertical-align: baseline;&quot;&gt;开户银行&lt;/span&gt;&lt;span lang=&quot;EN-US&quot; style=&quot;forced-color-adjust: none;&quot;&gt;&lt;/span&gt;&lt;/p&gt;&lt;p class=&quot;paragraph text-align-type-left&quot; style=&quot;forced-color-adjust: none; text-align: left; line-height: 1.3; margin-top: 3pt; margin-bottom: 3pt; margin-left: 0pt;&quot;&gt;&lt;span data-font-family=&quot;default&quot; style=&quot;forced-color-adjust: none; font-size: 11pt; font-weight: normal; font-style: normal; color: rgb(0, 0, 0); letter-spacing: 0pt; vertical-align: baseline;&quot;&gt;银行账号&lt;/span&gt;&lt;/p&gt;&lt;/td&gt;&lt;/tr&gt;&lt;/tbody&gt;&lt;/table&gt;" style="text;whiteSpace=wrap;html=1;movable=1;resizable=1;rotatable=1;deletable=1;editable=1;locked=0;connectable=1;" vertex="1" parent="WIyWlLk6GJQsqaUBKTNV-1">
          <mxGeometry x="557" y="-800" width="313" height="420" as="geometry" />
        </mxCell>
      </root>
    </mxGraphModel>
  </diagram>
</mxfile>
